<svg width="44" height="44" viewBox="0 0 44 44" fill="none" xmlns="http://www.w3.org/2000/svg">
<path d="M26.7304 19.8598H18.7227L22.727 23.8631L26.7304 19.8598Z" fill="#09193A"/>
<path d="M22.727 23.8631L30.9827 32.1188L35.5745 27.4101C36.1152 26.8562 36.4171 26.1133 36.4171 25.3388V19.8598H26.7314L22.727 23.8641L22.727 23.8631Z" fill="#E6EAEE"/>
<path d="M36.416 12.0614C36.412 11.3693 35.5461 11.0441 35.0562 11.534L26.7304 19.8598L22.726 23.8641L30.9817 32.1198L35.5735 27.4111C36.1142 26.8572 36.416 26.1143 36.416 25.3398V12.0777C36.416 12.0726 36.416 12.0665 36.416 12.0614Z" fill="url(#paint0_linear_1696_15749)"/>
<path d="M18.7227 19.8598L9.28601 19.8598V25.3378C9.28601 26.1123 9.58888 26.8562 10.1296 27.4101L14.6004 31.9887L22.726 23.8631L18.7217 19.8587L18.7227 19.8598Z" fill="#E6EAEE"/>
<path d="M14.6014 31.9887L18.3243 35.802C20.8112 38.3489 24.9081 38.3479 27.393 35.7989L30.9817 32.1188L22.726 23.8631L14.6004 31.9887L14.6014 31.9887Z" fill="#E6EAEE"/>
<path d="M14.6014 31.9887L18.3243 35.802C20.8112 38.3489 24.9081 38.3479 27.393 35.7989L30.9817 32.1188L22.726 23.8631L14.6004 31.9887L14.6014 31.9887Z" fill="url(#paint1_linear_1696_15749)"/>
<path d="M22.727 23.8631L10.4467 11.5827C10.0188 11.1548 9.28703 11.4567 9.28601 12.0624V25.0542C9.28601 26.0096 9.66002 26.9273 10.3278 27.6113L19.6343 37.1415C21.4038 38.9536 24.3176 38.9526 26.085 37.1395L30.504 32.6076C30.7693 32.3363 30.7662 31.9013 30.4979 31.633L22.727 23.8621L22.727 23.8631Z" fill="url(#paint2_linear_1696_15749)"/>
<path d="M36.4171 9.96374C35.1487 9.96374 34.1212 8.96468 34.1212 7.73187C34.1212 7.19321 34.3173 6.69826 34.6446 6.31307C34.7177 6.22668 34.7991 6.14842 34.8834 6.07423C35.2899 5.71851 35.8266 5.5 36.4171 5.5C37.6468 5.5 38.6479 6.44113 38.7079 7.62211C38.7099 7.65869 38.714 7.69528 38.714 7.73187C38.714 7.76846 38.7099 7.80505 38.7079 7.84164C38.6489 9.02363 37.6478 9.96374 36.4171 9.96374Z" fill="url(#paint3_linear_1696_15749)"/>
<defs>
<linearGradient id="paint0_linear_1696_15749" x1="-27.3362" y1="21.9984" x2="84.879" y2="21.9984" gradientUnits="userSpaceOnUse">
<stop stop-color="#00CFF4"/>
<stop offset="0.41" stop-color="#00BBF4"/>
<stop offset="1" stop-color="#0098F5"/>
</linearGradient>
<linearGradient id="paint1_linear_1696_15749" x1="-6.72245" y1="22.0003" x2="87.057" y2="22.0003" gradientUnits="userSpaceOnUse">
<stop stop-color="#00CFF4"/>
<stop offset="0.41" stop-color="#00BBF4"/>
<stop offset="1" stop-color="#0098F5"/>
</linearGradient>
<linearGradient id="paint2_linear_1696_15749" x1="-39.2897" y1="22.0017" x2="54.4917" y2="22.0017" gradientUnits="userSpaceOnUse">
<stop stop-color="#F5B059"/>
<stop offset="0.14" stop-color="#F4AA55"/>
<stop offset="0.33" stop-color="#F49949"/>
<stop offset="0.53" stop-color="#F37E37"/>
<stop offset="0.75" stop-color="#F35B1F"/>
</linearGradient>
<linearGradient id="paint3_linear_1696_15749" x1="34.1212" y1="7.73187" x2="38.714" y2="7.73187" gradientUnits="userSpaceOnUse">
<stop stop-color="#00CFF4"/>
<stop offset="0.41" stop-color="#00BBF4"/>
<stop offset="1" stop-color="#0098F5"/>
</linearGradient>
</defs>
</svg>
